# xmcd
#
# Track frame offsets: 
#        150
#        12155
#        25782
#        36717
#        49317
#        60817
#        70757
#        82635
#        92897
#        105205
#        114807
#        126232
#        138947
#        149685
#        158030
#        168745
#        178820
#        187932
#        199742
#        210762
#        220465
#        229952
#        241680
#        252980
#
# Disc length: 3516 seconds
#
# Revision: 5
# Processed by: cddbd v1.5.2PL0 Copyright (c) Steve Scherf et al.
# Submitted via: ExactAudioCopyFreeDBPlugin 1.0
#
DISCID=440dba18
DTITLE=Joe Maphis - Flying Fingers
DYEAR=1996
DGENRE=Country
TTITLE0=Flying Fingers
TTITLE1=Lorrie Ann
TTITLE2=Guitar Rock And Roll
TTITLE3=Randy Lynn Rag
TTITLE4=Sweet Fern
TTITLE5=Twin Banjo Special
TTITLE6=Fire On The Strings
TTITLE7=Bully Of The Town
TTITLE8=Town Hall Shuffle
TTITLE9=Floggin' The Banjo
TTITLE10=Tennessee Two Step
TTITLE11=Katy Warren Breakdown
TTITLE12=Bye, Bye
TTITLE13=Early American
TTITLE14=The Rockin' Gypsy
TTITLE15=Hurricane
TTITLE16=Short Recess
TTITLE17=Moonshot
TTITLE18=Del Rio
TTITLE19=Navajo (War Party)
TTITLE20=Jubilo
TTITLE21=Marching Through Georgia
TTITLE22=Water Baby Boogie
TTITLE23=Black Sombrero
EXTD=
EXTT0=
EXTT1=
EXTT2=
EXTT3=
EXTT4=
EXTT5=
EXTT6=
EXTT7=
EXTT8=
EXTT9=
EXTT10=
EXTT11=
EXTT12=
EXTT13=
EXTT14=
EXTT15=
EXTT16=
EXTT17=
EXTT18=
EXTT19=
EXTT20=
EXTT21=
EXTT22=
EXTT23=
PLAYORDER=
